<svg width="242" height="55" viewBox="0 0 242 55" fill="none" xmlns="http://www.w3.org/2000/svg">
<path d="M85.3242 45.0859V46H82.2969V45.0859H85.3242ZM82.6797 40.3125V46H81.5078V40.3125H82.6797ZM84.9297 42.6289V43.5195H82.2969V42.6289H84.9297ZM85.3203 40.3125V41.2305H82.2969V40.3125H85.3203ZM86.8438 41.7734L87.543 43.0586L88.2617 41.7734H89.4609L88.2656 43.8398L89.5156 46H88.3125L87.5508 44.6406L86.7891 46H85.5859L86.8359 43.8398L85.6406 41.7734H86.8438ZM91.1328 42.5859V47.625H90.0078V41.7734H91.0508L91.1328 42.5859ZM93.8086 43.8398V43.9219C93.8086 44.2292 93.7721 44.5143 93.6992 44.7773C93.6289 45.0404 93.5247 45.2695 93.3867 45.4648C93.2487 45.6576 93.0768 45.8086 92.8711 45.918C92.668 46.0247 92.4336 46.0781 92.168 46.0781C91.9102 46.0781 91.6862 46.026 91.4961 45.9219C91.306 45.8177 91.1458 45.6719 91.0156 45.4844C90.888 45.2943 90.7852 45.0742 90.707 44.8242C90.6289 44.5742 90.569 44.306 90.5273 44.0195V43.8047C90.569 43.4974 90.6289 43.2161 90.707 42.9609C90.7852 42.7031 90.888 42.4805 91.0156 42.293C91.1458 42.1029 91.3047 41.9557 91.4922 41.8516C91.6823 41.7474 91.9049 41.6953 92.1602 41.6953C92.4284 41.6953 92.6641 41.7461 92.8672 41.8477C93.0729 41.9492 93.2448 42.0951 93.3828 42.2852C93.5234 42.4753 93.6289 42.7018 93.6992 42.9648C93.7721 43.2279 93.8086 43.5195 93.8086 43.8398ZM92.6797 43.9219V43.8398C92.6797 43.6602 92.6641 43.4948 92.6328 43.3438C92.6042 43.1901 92.5573 43.056 92.4922 42.9414C92.4297 42.8268 92.3464 42.7383 92.2422 42.6758C92.1406 42.6107 92.0169 42.5781 91.8711 42.5781C91.7174 42.5781 91.5859 42.6029 91.4766 42.6523C91.3698 42.7018 91.2826 42.7734 91.2148 42.8672C91.1471 42.9609 91.0964 43.0729 91.0625 43.2031C91.0286 43.3333 91.0078 43.4805 91 43.6445V44.1875C91.013 44.3802 91.0495 44.5534 91.1094 44.707C91.1693 44.8581 91.2617 44.9779 91.3867 45.0664C91.5117 45.1549 91.6758 45.1992 91.8789 45.1992C92.0273 45.1992 92.1523 45.1667 92.2539 45.1016C92.3555 45.0339 92.4375 44.9414 92.5 44.8242C92.5651 44.707 92.6107 44.5716 92.6367 44.418C92.6654 44.2643 92.6797 44.099 92.6797 43.9219ZM96.4531 46.0781C96.125 46.0781 95.8307 46.026 95.5703 45.9219C95.3099 45.8151 95.0885 45.668 94.9062 45.4805C94.7266 45.293 94.5885 45.0755 94.4922 44.8281C94.3958 44.5781 94.3477 44.3125 94.3477 44.0312V43.875C94.3477 43.5547 94.3932 43.2617 94.4844 42.9961C94.5755 42.7305 94.7057 42.5 94.875 42.3047C95.0469 42.1094 95.2552 41.9596 95.5 41.8555C95.7448 41.7487 96.0208 41.6953 96.3281 41.6953C96.6276 41.6953 96.8932 41.7448 97.125 41.8438C97.3568 41.9427 97.5508 42.0833 97.707 42.2656C97.8659 42.4479 97.9857 42.6667 98.0664 42.9219C98.1471 43.1745 98.1875 43.4557 98.1875 43.7656V44.2344H94.8281V43.4844H97.082V43.3984C97.082 43.2422 97.0534 43.1029 96.9961 42.9805C96.9414 42.8555 96.8581 42.7565 96.7461 42.6836C96.6341 42.6107 96.4909 42.5742 96.3164 42.5742C96.168 42.5742 96.0404 42.6068 95.9336 42.6719C95.8268 42.737 95.7396 42.8281 95.6719 42.9453C95.6068 43.0625 95.5573 43.2005 95.5234 43.3594C95.4922 43.5156 95.4766 43.6875 95.4766 43.875V44.0312C95.4766 44.2005 95.5 44.3568 95.5469 44.5C95.5964 44.6432 95.6654 44.7669 95.7539 44.8711C95.8451 44.9753 95.9544 45.056 96.082 45.1133C96.2122 45.1706 96.3594 45.1992 96.5234 45.1992C96.7266 45.1992 96.9154 45.1602 97.0898 45.082C97.2669 45.0013 97.4193 44.8802 97.5469 44.7188L98.0938 45.3125C98.0052 45.4401 97.8841 45.5625 97.7305 45.6797C97.5794 45.7969 97.3971 45.8932 97.1836 45.9688C96.9701 46.0417 96.7266 46.0781 96.4531 46.0781ZM99.9297 42.6758V46H98.8047V41.7734H99.8594L99.9297 42.6758ZM99.7656 43.7383H99.4609C99.4609 43.4258 99.5013 43.1445 99.582 42.8945C99.6628 42.6419 99.776 42.4271 99.9219 42.25C100.068 42.0703 100.241 41.9336 100.441 41.8398C100.645 41.7435 100.871 41.6953 101.121 41.6953C101.319 41.6953 101.5 41.724 101.664 41.7812C101.828 41.8385 101.969 41.9297 102.086 42.0547C102.206 42.1797 102.297 42.3451 102.359 42.5508C102.424 42.7565 102.457 43.0078 102.457 43.3047V46H101.324V43.3008C101.324 43.1133 101.298 42.9674 101.246 42.8633C101.194 42.7591 101.117 42.6862 101.016 42.6445C100.917 42.6003 100.794 42.5781 100.648 42.5781C100.497 42.5781 100.366 42.6081 100.254 42.668C100.145 42.7279 100.053 42.8112 99.9805 42.918C99.9102 43.0221 99.8568 43.1445 99.8203 43.2852C99.7839 43.4258 99.7656 43.5768 99.7656 43.7383ZM105.598 44.832C105.598 44.7513 105.574 44.6784 105.527 44.6133C105.48 44.5482 105.393 44.4883 105.266 44.4336C105.141 44.3763 104.96 44.3242 104.723 44.2773C104.509 44.2305 104.31 44.1719 104.125 44.1016C103.943 44.0286 103.784 43.9414 103.648 43.8398C103.516 43.7383 103.411 43.6185 103.336 43.4805C103.26 43.3398 103.223 43.1797 103.223 43C103.223 42.8229 103.26 42.6562 103.336 42.5C103.414 42.3438 103.525 42.2057 103.668 42.0859C103.814 41.9635 103.991 41.8685 104.199 41.8008C104.41 41.7305 104.647 41.6953 104.91 41.6953C105.277 41.6953 105.592 41.7539 105.855 41.8711C106.121 41.9883 106.324 42.1497 106.465 42.3555C106.608 42.5586 106.68 42.7904 106.68 43.0508H105.555C105.555 42.9414 105.531 42.8438 105.484 42.7578C105.44 42.6693 105.37 42.6003 105.273 42.5508C105.18 42.4987 105.057 42.4727 104.906 42.4727C104.781 42.4727 104.673 42.4948 104.582 42.5391C104.491 42.5807 104.421 42.638 104.371 42.7109C104.324 42.7812 104.301 42.8594 104.301 42.9453C104.301 43.0104 104.314 43.069 104.34 43.1211C104.368 43.1706 104.414 43.2161 104.477 43.2578C104.539 43.2995 104.62 43.3385 104.719 43.375C104.82 43.4089 104.945 43.4401 105.094 43.4688C105.398 43.5312 105.671 43.6133 105.91 43.7148C106.15 43.8138 106.34 43.9492 106.48 44.1211C106.621 44.2904 106.691 44.513 106.691 44.7891C106.691 44.9766 106.65 45.1484 106.566 45.3047C106.483 45.4609 106.363 45.5977 106.207 45.7148C106.051 45.8294 105.863 45.9193 105.645 45.9844C105.428 46.0469 105.185 46.0781 104.914 46.0781C104.521 46.0781 104.188 46.0078 103.914 45.8672C103.643 45.7266 103.438 45.5482 103.297 45.332C103.159 45.1133 103.09 44.8893 103.09 44.6602H104.156C104.161 44.8138 104.201 44.9375 104.273 45.0312C104.349 45.125 104.444 45.1927 104.559 45.2344C104.676 45.276 104.802 45.2969 104.938 45.2969C105.083 45.2969 105.204 45.2773 105.301 45.2383C105.397 45.1966 105.47 45.1419 105.52 45.0742C105.572 45.0039 105.598 44.9232 105.598 44.832ZM109.367 46.0781C109.039 46.0781 108.745 46.026 108.484 45.9219C108.224 45.8151 108.003 45.668 107.82 45.4805C107.641 45.293 107.503 45.0755 107.406 44.8281C107.31 44.5781 107.262 44.3125 107.262 44.0312V43.875C107.262 43.5547 107.307 43.2617 107.398 42.9961C107.49 42.7305 107.62 42.5 107.789 42.3047C107.961 42.1094 108.169 41.9596 108.414 41.8555C108.659 41.7487 108.935 41.6953 109.242 41.6953C109.542 41.6953 109.807 41.7448 110.039 41.8438C110.271 41.9427 110.465 42.0833 110.621 42.2656C110.78 42.4479 110.9 42.6667 110.98 42.9219C111.061 43.1745 111.102 43.4557 111.102 43.7656V44.2344H107.742V43.4844H109.996V43.3984C109.996 43.2422 109.967 43.1029 109.91 42.9805C109.855 42.8555 109.772 42.7565 109.66 42.6836C109.548 42.6107 109.405 42.5742 109.23 42.5742C109.082 42.5742 108.954 42.6068 108.848 42.6719C108.741 42.737 108.654 42.8281 108.586 42.9453C108.521 43.0625 108.471 43.2005 108.438 43.3594C108.406 43.5156 108.391 43.6875 108.391 43.875V44.0312C108.391 44.2005 108.414 44.3568 108.461 44.5C108.51 44.6432 108.579 44.7669 108.668 44.8711C108.759 44.9753 108.868 45.056 108.996 45.1133C109.126 45.1706 109.273 45.1992 109.438 45.1992C109.641 45.1992 109.829 45.1602 110.004 45.082C110.181 45.0013 110.333 44.8802 110.461 44.7188L111.008 45.3125C110.919 45.4401 110.798 45.5625 110.645 45.6797C110.493 45.7969 110.311 45.8932 110.098 45.9688C109.884 46.0417 109.641 46.0781 109.367 46.0781ZM116.137 40.3125V46H114.969V40.3125H116.137ZM117.887 40.3125V41.2305H113.246V40.3125H117.887ZM119.336 42.6953V46H118.211V41.7734H119.27L119.336 42.6953ZM120.609 41.7461L120.59 42.7891C120.535 42.7812 120.469 42.7747 120.391 42.7695C120.315 42.7617 120.246 42.7578 120.184 42.7578C120.025 42.7578 119.887 42.7786 119.77 42.8203C119.655 42.8594 119.559 42.918 119.48 42.9961C119.405 43.0742 119.348 43.1693 119.309 43.2812C119.272 43.3932 119.251 43.5208 119.246 43.6641L119.02 43.5938C119.02 43.3203 119.047 43.069 119.102 42.8398C119.156 42.6081 119.236 42.4062 119.34 42.2344C119.447 42.0625 119.577 41.9297 119.73 41.8359C119.884 41.7422 120.06 41.6953 120.258 41.6953C120.32 41.6953 120.384 41.7005 120.449 41.7109C120.514 41.7188 120.568 41.7305 120.609 41.7461ZM123.289 45.0469V43.1641C123.289 43.0286 123.267 42.9128 123.223 42.8164C123.178 42.7174 123.109 42.6406 123.016 42.5859C122.924 42.5312 122.806 42.5039 122.66 42.5039C122.535 42.5039 122.427 42.526 122.336 42.5703C122.245 42.612 122.174 42.6732 122.125 42.7539C122.076 42.832 122.051 42.9245 122.051 43.0312H120.926C120.926 42.8516 120.967 42.681 121.051 42.5195C121.134 42.3581 121.255 42.2161 121.414 42.0938C121.573 41.9688 121.762 41.8711 121.98 41.8008C122.202 41.7305 122.449 41.6953 122.723 41.6953C123.051 41.6953 123.342 41.75 123.598 41.8594C123.853 41.9688 124.053 42.1328 124.199 42.3516C124.348 42.5703 124.422 42.8438 124.422 43.1719V44.9805C124.422 45.2122 124.436 45.4023 124.465 45.5508C124.493 45.6966 124.535 45.8242 124.59 45.9336V46H123.453C123.398 45.8854 123.357 45.7422 123.328 45.5703C123.302 45.3958 123.289 45.2214 123.289 45.0469ZM123.438 43.4258L123.445 44.0625H122.816C122.668 44.0625 122.539 44.0794 122.43 44.1133C122.32 44.1471 122.23 44.1953 122.16 44.2578C122.09 44.3177 122.038 44.388 122.004 44.4688C121.973 44.5495 121.957 44.638 121.957 44.7344C121.957 44.8307 121.979 44.918 122.023 44.9961C122.068 45.0716 122.132 45.1315 122.215 45.1758C122.298 45.2174 122.396 45.2383 122.508 45.2383C122.677 45.2383 122.824 45.2044 122.949 45.1367C123.074 45.069 123.171 44.9857 123.238 44.8867C123.309 44.7878 123.345 44.694 123.348 44.6055L123.645 45.082C123.603 45.1888 123.546 45.2995 123.473 45.4141C123.402 45.5286 123.312 45.6367 123.203 45.7383C123.094 45.8372 122.962 45.9193 122.809 45.9844C122.655 46.0469 122.473 46.0781 122.262 46.0781C121.993 46.0781 121.75 46.0247 121.531 45.918C121.315 45.8086 121.143 45.6589 121.016 45.4688C120.891 45.276 120.828 45.0573 120.828 44.8125C120.828 44.5911 120.87 44.3945 120.953 44.2227C121.036 44.0508 121.159 43.9062 121.32 43.7891C121.484 43.6693 121.689 43.5794 121.934 43.5195C122.178 43.457 122.462 43.4258 122.785 43.4258H123.438ZM127.035 45.1992C127.173 45.1992 127.296 45.1732 127.402 45.1211C127.509 45.0664 127.592 44.9909 127.652 44.8945C127.715 44.7956 127.747 44.6797 127.75 44.5469H128.809C128.806 44.8438 128.727 45.1081 128.57 45.3398C128.414 45.569 128.204 45.75 127.941 45.8828C127.678 46.013 127.384 46.0781 127.059 46.0781C126.73 46.0781 126.444 46.0234 126.199 45.9141C125.957 45.8047 125.755 45.6536 125.594 45.4609C125.432 45.2656 125.311 45.0391 125.23 44.7812C125.15 44.5208 125.109 44.2422 125.109 43.9453V43.832C125.109 43.5326 125.15 43.2539 125.23 42.9961C125.311 42.7357 125.432 42.5091 125.594 42.3164C125.755 42.1211 125.957 41.9688 126.199 41.8594C126.441 41.75 126.725 41.6953 127.051 41.6953C127.397 41.6953 127.701 41.7617 127.961 41.8945C128.224 42.0273 128.43 42.2174 128.578 42.4648C128.729 42.7096 128.806 43 128.809 43.3359H127.75C127.747 43.1953 127.717 43.0677 127.66 42.9531C127.605 42.8385 127.525 42.7474 127.418 42.6797C127.314 42.6094 127.185 42.5742 127.031 42.5742C126.867 42.5742 126.733 42.6094 126.629 42.6797C126.525 42.7474 126.444 42.8411 126.387 42.9609C126.329 43.0781 126.289 43.2122 126.266 43.3633C126.245 43.5117 126.234 43.668 126.234 43.832V43.9453C126.234 44.1094 126.245 44.2669 126.266 44.418C126.286 44.569 126.326 44.7031 126.383 44.8203C126.443 44.9375 126.525 45.0299 126.629 45.0977C126.733 45.1654 126.868 45.1992 127.035 45.1992ZM130.586 39.9961V46H129.461V39.9961H130.586ZM133.25 41.7734L131.414 43.8672L130.43 44.8633L130.02 44.0508L130.801 43.0586L131.898 41.7734H133.25ZM132.082 46L130.832 44.0469L131.609 43.3672L133.379 46H132.082ZM135.602 46.0781C135.273 46.0781 134.979 46.026 134.719 45.9219C134.458 45.8151 134.237 45.668 134.055 45.4805C133.875 45.293 133.737 45.0755 133.641 44.8281C133.544 44.5781 133.496 44.3125 133.496 44.0312V43.875C133.496 43.5547 133.542 43.2617 133.633 42.9961C133.724 42.7305 133.854 42.5 134.023 42.3047C134.195 42.1094 134.404 41.9596 134.648 41.8555C134.893 41.7487 135.169 41.6953 135.477 41.6953C135.776 41.6953 136.042 41.7448 136.273 41.8438C136.505 41.9427 136.699 42.0833 136.855 42.2656C137.014 42.4479 137.134 42.6667 137.215 42.9219C137.296 43.1745 137.336 43.4557 137.336 43.7656V44.2344H133.977V43.4844H136.23V43.3984C136.23 43.2422 136.202 43.1029 136.145 42.9805C136.09 42.8555 136.007 42.7565 135.895 42.6836C135.783 42.6107 135.639 42.5742 135.465 42.5742C135.316 42.5742 135.189 42.6068 135.082 42.6719C134.975 42.737 134.888 42.8281 134.82 42.9453C134.755 43.0625 134.706 43.2005 134.672 43.3594C134.641 43.5156 134.625 43.6875 134.625 43.875V44.0312C134.625 44.2005 134.648 44.3568 134.695 44.5C134.745 44.6432 134.814 44.7669 134.902 44.8711C134.993 44.9753 135.103 45.056 135.23 45.1133C135.361 45.1706 135.508 45.1992 135.672 45.1992C135.875 45.1992 136.064 45.1602 136.238 45.082C136.415 45.0013 136.568 44.8802 136.695 44.7188L137.242 45.3125C137.154 45.4401 137.033 45.5625 136.879 45.6797C136.728 45.7969 136.546 45.8932 136.332 45.9688C136.118 46.0417 135.875 46.0781 135.602 46.0781ZM139.102 42.6953V46H137.977V41.7734H139.035L139.102 42.6953ZM140.375 41.7461L140.355 42.7891C140.301 42.7812 140.234 42.7747 140.156 42.7695C140.081 42.7617 140.012 42.7578 139.949 42.7578C139.79 42.7578 139.652 42.7786 139.535 42.8203C139.421 42.8594 139.324 42.918 139.246 42.9961C139.171 43.0742 139.113 43.1693 139.074 43.2812C139.038 43.3932 139.017 43.5208 139.012 43.6641L138.785 43.5938C138.785 43.3203 138.812 43.069 138.867 42.8398C138.922 42.6081 139.001 42.4062 139.105 42.2344C139.212 42.0625 139.342 41.9297 139.496 41.8359C139.65 41.7422 139.826 41.6953 140.023 41.6953C140.086 41.6953 140.15 41.7005 140.215 41.7109C140.28 41.7188 140.333 41.7305 140.375 41.7461Z" fill="white"/>
<path d="M14.144 5.968H15.232L20.288 23.504L12.928 50H0.128L14.144 5.968ZM28.544 42.192H17.856L20.544 32.336H25.664L18.112 5.968H29.824L43.84 50H30.784L28.544 42.192ZM41.6385 5.968H77.6705V16.208H41.6385V5.968ZM53.2225 18.768H66.0225V50H53.2225V18.768Z" fill="white"/>
<path d="M89.4609 18.8555L84.8203 33H81.082L87.4219 15.9375H89.8008L89.4609 18.8555ZM93.3164 33L88.6641 18.8555L88.2891 15.9375H90.6914L97.0664 33H93.3164ZM93.1055 26.6484V29.4023H84.0938V26.6484H93.1055ZM107.859 15.9375H111.363V27.2109C111.363 28.5234 111.082 29.6289 110.52 30.5273C109.965 31.4258 109.195 32.1016 108.211 32.5547C107.234 33.0078 106.109 33.2344 104.836 33.2344C103.562 33.2344 102.43 33.0078 101.438 32.5547C100.453 32.1016 99.6797 31.4258 99.1172 30.5273C98.5625 29.6289 98.2852 28.5234 98.2852 27.2109V15.9375H101.801V27.2109C101.801 27.9766 101.922 28.6016 102.164 29.0859C102.406 29.5703 102.754 29.9258 103.207 30.1523C103.668 30.3789 104.211 30.4922 104.836 30.4922C105.477 30.4922 106.02 30.3789 106.465 30.1523C106.918 29.9258 107.262 29.5703 107.496 29.0859C107.738 28.6016 107.859 27.9766 107.859 27.2109V15.9375ZM114.258 15.9375H120.621C121.926 15.9375 123.047 16.1328 123.984 16.5234C124.93 16.9141 125.656 17.4922 126.164 18.2578C126.672 19.0234 126.926 19.9648 126.926 21.082C126.926 21.9961 126.77 22.7812 126.457 23.4375C126.152 24.0859 125.719 24.6289 125.156 25.0664C124.602 25.4961 123.949 25.8398 123.199 26.0977L122.086 26.6836H116.555L116.531 23.9414H120.645C121.262 23.9414 121.773 23.832 122.18 23.6133C122.586 23.3945 122.891 23.0898 123.094 22.6992C123.305 22.3086 123.41 21.8555 123.41 21.3398C123.41 20.793 123.309 20.3203 123.105 19.9219C122.902 19.5234 122.594 19.2188 122.18 19.0078C121.766 18.7969 121.246 18.6914 120.621 18.6914H117.773V33H114.258V15.9375ZM123.797 33L119.906 25.3945L123.621 25.3711L127.559 32.8359V33H123.797ZM139.055 15.9375H142.559V27.2109C142.559 28.5234 142.277 29.6289 141.715 30.5273C141.16 31.4258 140.391 32.1016 139.406 32.5547C138.43 33.0078 137.305 33.2344 136.031 33.2344C134.758 33.2344 133.625 33.0078 132.633 32.5547C131.648 32.1016 130.875 31.4258 130.312 30.5273C129.758 29.6289 129.48 28.5234 129.48 27.2109V15.9375H132.996V27.2109C132.996 27.9766 133.117 28.6016 133.359 29.0859C133.602 29.5703 133.949 29.9258 134.402 30.1523C134.863 30.3789 135.406 30.4922 136.031 30.4922C136.672 30.4922 137.215 30.3789 137.66 30.1523C138.113 29.9258 138.457 29.5703 138.691 29.0859C138.934 28.6016 139.055 27.9766 139.055 27.2109V15.9375ZM147.059 15.9375H150.035L154.418 28.4648L158.801 15.9375H161.777L155.613 33H153.223L147.059 15.9375ZM145.453 15.9375H148.418L148.957 28.1484V33H145.453V15.9375ZM160.418 15.9375H163.395V33H159.879V28.1484L160.418 15.9375ZM173.754 15.9375V33H170.25V15.9375H173.754ZM179.004 15.9375V18.6914H165.082V15.9375H179.004ZM181.008 15.9375H187.371C188.676 15.9375 189.797 16.1328 190.734 16.5234C191.68 16.9141 192.406 17.4922 192.914 18.2578C193.422 19.0234 193.676 19.9648 193.676 21.082C193.676 21.9961 193.52 22.7812 193.207 23.4375C192.902 24.0859 192.469 24.6289 191.906 25.0664C191.352 25.4961 190.699 25.8398 189.949 26.0977L188.836 26.6836H183.305L183.281 23.9414H187.395C188.012 23.9414 188.523 23.832 188.93 23.6133C189.336 23.3945 189.641 23.0898 189.844 22.6992C190.055 22.3086 190.16 21.8555 190.16 21.3398C190.16 20.793 190.059 20.3203 189.855 19.9219C189.652 19.5234 189.344 19.2188 188.93 19.0078C188.516 18.7969 187.996 18.6914 187.371 18.6914H184.523V33H181.008V15.9375ZM190.547 33L186.656 25.3945L190.371 25.3711L194.309 32.8359V33H190.547ZM203.32 18.8555L198.68 33H194.941L201.281 15.9375H203.66L203.32 18.8555ZM207.176 33L202.523 18.8555L202.148 15.9375H204.551L210.926 33H207.176ZM206.965 26.6484V29.4023H197.953V26.6484H206.965ZM222.188 27.3398H225.691C225.621 28.4883 225.305 29.5078 224.742 30.3984C224.188 31.2891 223.41 31.9844 222.41 32.4844C221.418 32.9844 220.223 33.2344 218.824 33.2344C217.73 33.2344 216.75 33.0469 215.883 32.6719C215.016 32.2891 214.273 31.7422 213.656 31.0312C213.047 30.3203 212.582 29.4609 212.262 28.4531C211.941 27.4453 211.781 26.3164 211.781 25.0664V23.8828C211.781 22.6328 211.945 21.5039 212.273 20.4961C212.609 19.4805 213.086 18.6172 213.703 17.9062C214.328 17.1953 215.074 16.6484 215.941 16.2656C216.809 15.8828 217.777 15.6914 218.848 15.6914C220.27 15.6914 221.469 15.9492 222.445 16.4648C223.43 16.9805 224.191 17.6914 224.73 18.5977C225.277 19.5039 225.605 20.5352 225.715 21.6914H222.199C222.16 21.0039 222.023 20.4219 221.789 19.9453C221.555 19.4609 221.199 19.0977 220.723 18.8555C220.254 18.6055 219.629 18.4805 218.848 18.4805C218.262 18.4805 217.75 18.5898 217.312 18.8086C216.875 19.0273 216.508 19.3594 216.211 19.8047C215.914 20.25 215.691 20.8125 215.543 21.4922C215.402 22.1641 215.332 22.9531 215.332 23.8594V25.0664C215.332 25.9492 215.398 26.7266 215.531 27.3984C215.664 28.0625 215.867 28.625 216.141 29.0859C216.422 29.5391 216.781 29.8828 217.219 30.1172C217.664 30.3438 218.199 30.457 218.824 30.457C219.559 30.457 220.164 30.3398 220.641 30.1055C221.117 29.8711 221.48 29.5234 221.73 29.0625C221.988 28.6016 222.141 28.0273 222.188 27.3398ZM231.516 15.9375V33H228V15.9375H231.516ZM241.734 15.9375L234.973 24.3633L231.07 28.5586L230.438 25.2305L233.074 21.6211L237.422 15.9375H241.734ZM237.738 33L232.711 25.1133L235.312 22.9336L241.898 33H237.738Z" fill="white"/>
</svg>
